<svg width="36" height="36" viewBox="0 0 36 36" fill="none" xmlns="http://www.w3.org/2000/svg">
<path d="M35.4821 16.3646C35.4692 16.311 35.4497 16.2602 35.4236 16.2132L30.7128 7.70422L30.7107 7.70042L30.7097 7.69859C30.7081 7.69562 30.7061 7.69306 30.7045 7.69012C30.703 7.6877 30.7015 7.68528 30.7001 7.68293C30.6951 7.67457 30.6901 7.66599 30.6846 7.6577C30.6827 7.65459 30.6807 7.65148 30.6785 7.64847C30.6747 7.64294 30.6706 7.63775 30.6666 7.63247C30.6609 7.62459 30.6552 7.61674 30.649 7.60913C30.6469 7.60661 30.645 7.60405 30.6428 7.60153C30.6377 7.59541 30.6323 7.58967 30.6269 7.5839C30.6211 7.57734 30.6153 7.57094 30.6092 7.56472L30.6027 7.55832C30.5962 7.55193 30.5893 7.54588 30.5826 7.5398C30.5771 7.53475 30.5716 7.52964 30.5659 7.52483C30.5633 7.52283 30.5608 7.52079 30.5583 7.51871C30.5503 7.51232 30.5421 7.50641 30.5339 7.50039C30.5288 7.49673 30.524 7.49279 30.5187 7.48923C30.5158 7.48716 30.5127 7.48519 30.5096 7.48315C30.501 7.47762 30.4922 7.47243 30.4833 7.46735C30.4812 7.46597 30.4789 7.46452 30.4767 7.4632C30.4738 7.46161 30.4712 7.45964 30.4684 7.45812V7.45812C30.465 7.45632 30.4607 7.45418 30.4574 7.45252C30.4498 7.44848 30.4418 7.44492 30.434 7.44118C30.4236 7.43635 30.4133 7.43144 30.4026 7.42708C30.3956 7.42418 30.3883 7.42176 30.3811 7.4192C30.3696 7.41505 30.3582 7.41091 30.3463 7.40745C30.3386 7.4051 30.3307 7.40341 30.323 7.4014C30.3137 7.39898 30.3046 7.39615 30.2952 7.39428C30.293 7.39376 30.2908 7.39359 30.2885 7.39324C30.2802 7.39151 30.2716 7.39048 30.2631 7.3893C30.2535 7.38778 30.2438 7.38585 30.2343 7.38495L30.2303 7.38471C30.2201 7.38377 30.2096 7.3835 30.1991 7.38298C30.1903 7.38263 30.1817 7.38194 30.173 7.38194L30.1713 7.38184H18.6149V4.78015C19.5248 4.51455 20.1913 3.67574 20.1913 2.68414C20.1913 1.47981 19.2083 0.5 17.9999 0.5C16.7915 0.5 15.8085 1.47981 15.8085 2.68418C15.8085 3.67584 16.4753 4.51473 17.3853 4.78036V7.3818H5.83408H5.82777C5.81504 7.3818 5.80235 7.38284 5.78962 7.3836C5.78358 7.38395 5.77748 7.38405 5.77152 7.38453C5.7566 7.38592 5.74176 7.38834 5.72699 7.39069C5.7223 7.39152 5.71776 7.39196 5.71325 7.39276C5.6991 7.39552 5.68516 7.39912 5.67105 7.40278C5.66571 7.40427 5.66023 7.40538 5.65492 7.40693C5.64112 7.41101 5.62766 7.41581 5.61428 7.42076C5.60914 7.42273 5.6038 7.42435 5.59874 7.42639C5.58625 7.43151 5.57412 7.43718 5.56198 7.44298C5.55594 7.44589 5.54977 7.44862 5.54384 7.45169C5.53992 7.45366 5.53607 7.45556 5.53229 7.45757V7.45757C5.52945 7.45909 5.52605 7.46147 5.52314 7.46313C5.51967 7.4651 5.51644 7.46728 5.51308 7.46922C5.5058 7.47357 5.49841 7.47775 5.49137 7.48235C5.4879 7.4846 5.48443 7.48684 5.48107 7.48913C5.47517 7.49317 5.46973 7.49749 5.46408 7.50171C5.45679 7.5071 5.44941 7.51221 5.44237 7.51795C5.43952 7.52027 5.43671 7.52245 5.43387 7.5248C5.42763 7.52998 5.42184 7.53551 5.41584 7.54097C5.40966 7.54643 5.40349 7.5519 5.39756 7.55774C5.39513 7.56005 5.39284 7.56237 5.39045 7.56475C5.38403 7.57125 5.37803 7.5781 5.37193 7.5848C5.36708 7.59023 5.36198 7.59552 5.35737 7.60118C5.35515 7.60374 5.35286 7.60651 5.35078 7.60913C5.3444 7.61698 5.33846 7.62514 5.33264 7.63316C5.32889 7.6382 5.32501 7.64297 5.32154 7.64819C5.31932 7.6513 5.31724 7.65452 5.31519 7.6577C5.30972 7.66599 5.30472 7.67453 5.29976 7.68293L5.29511 7.69053C5.29359 7.69337 5.29165 7.69572 5.29016 7.69859L5.28911 7.70039L5.28703 7.70426L0.576539 16.2128V16.2128C0.55046 16.2598 0.530796 16.3111 0.51786 16.3646C0.506277 16.4121 0.500104 16.4602 0.5 16.508C0.5 19.4366 2.89043 21.8198 5.82867 21.8198C8.76684 21.8198 11.1573 19.4374 11.1573 16.5089C11.1573 16.461 11.151 16.4122 11.1394 16.3647C11.1264 16.3111 11.1069 16.2603 11.0809 16.2133L6.87008 8.60754H17.3851V26.9622C17.3851 27.0283 17.3959 27.0916 17.4153 27.1513C15.1224 27.3942 13.3001 29.0494 12.95 31.1999H8.81955C8.47996 31.1999 8.20467 31.4741 8.20467 31.8126V34.8872C8.20467 35.2256 8.47996 35.5 8.81955 35.5H27.1803C27.5199 35.5 27.7952 35.2256 27.7952 34.8872V31.8126C27.7952 31.4741 27.5199 31.1998 27.1803 31.1998H23.0497C22.6996 29.0494 20.8774 27.3943 18.5846 27.1513C18.604 27.0916 18.6148 27.0282 18.6148 26.9623V8.60747H29.1299L24.9192 16.2127C24.8932 16.2597 24.8735 16.311 24.8606 16.3645C24.849 16.4121 24.8428 16.4601 24.8428 16.508C24.8428 19.4365 27.2332 21.8197 30.1713 21.8197C33.1096 21.8197 35.5 19.4373 35.5 16.5088C35.4999 16.4609 35.4938 16.4121 35.4821 16.3646ZM5.82856 9.26309L9.50074 15.8961H2.15629L5.82856 9.26309ZM5.82856 20.5942C3.77724 20.5942 2.07306 19.0847 1.77557 17.1216H9.88149C9.58404 19.0848 7.87979 20.5942 5.82856 20.5942ZM17.0381 2.68418C17.0381 2.15568 17.4695 1.7257 17.9998 1.7257C18.53 1.7257 18.9615 2.15568 18.9615 2.68418C18.9615 3.21278 18.5301 3.64287 17.9999 3.64287C17.4696 3.64287 17.0381 3.21274 17.0381 2.68418ZM26.5655 34.2744H9.43432V32.4254H26.5655L26.5655 34.2744ZM21.7992 31.1998H14.2007C14.5697 29.5561 16.1249 28.3449 17.9999 28.3449C19.8748 28.3449 21.4301 29.5561 21.7992 31.1998ZM33.8436 15.896H26.4992L30.1714 9.26313L33.8436 15.896ZM30.1713 20.5942C28.12 20.5942 26.4158 19.0847 26.1183 17.1216H34.2244C33.9269 19.0848 32.2226 20.5942 30.1713 20.5942Z" fill="white"/>
</svg>
