<svg width="41" height="41" viewBox="0 0 41 41" fill="none" xmlns="http://www.w3.org/2000/svg">
<circle opacity="0.1" cx="20.484" cy="20.161" r="19.5" transform="rotate(-0.463954 20.484 20.161)" fill="white" stroke="white"/>
<path d="M27.1122 15.1498L27.1123 15.1498C26.9395 14.7036 26.677 14.3071 26.3354 13.9787L26.3285 13.972L26.3286 13.9719C25.9934 13.637 25.5889 13.3782 25.1473 13.2161L25.1431 13.2145L25.1431 13.2145C24.7093 13.0508 24.2058 12.933 23.4412 12.9055L23.4395 12.9054C22.6315 12.8736 22.3805 12.8667 20.3043 12.8835C18.2283 12.9003 17.9766 12.9113 17.1713 12.9532L27.1122 15.1498ZM27.1122 15.1498L27.114 15.1542M27.1122 15.1498L27.114 15.1542M27.114 15.1542C27.2842 15.5815 27.4103 16.0854 27.4502 16.85L27.114 15.1542ZM15.471 13.2912L15.471 13.2912C15.0248 13.4639 14.6283 13.7264 14.2999 14.068L14.2932 14.0749L14.2931 14.0749C13.9582 14.41 13.6995 14.8145 13.5372 15.2562L13.5357 15.2603L13.5357 15.2603C13.372 15.6943 13.2542 16.1976 13.2267 16.9622L13.2266 16.9639C13.1948 17.7719 13.1878 18.0229 13.2047 20.0991C13.2215 22.1751 13.2325 22.4268 13.2744 23.2322L15.471 13.2912ZM15.471 13.2912L15.4754 13.2894M15.471 13.2912L15.4754 13.2894M15.4754 13.2894C15.9027 13.1194 16.4067 12.9932 17.1712 12.9532L15.4754 13.2894ZM13.6125 24.9325L13.6124 24.9325C13.7847 25.3773 14.0498 25.7748 14.3905 26.1049L14.3961 26.1102L14.396 26.1103C14.7312 26.4452 15.1357 26.704 15.5773 26.8662L15.5815 26.8677L15.5815 26.8677C16.0154 27.0314 16.5188 27.1492 17.2835 27.1767C18.0893 27.2057 18.3412 27.2126 20.4173 27.1957C22.4935 27.1789 22.745 27.168 23.5504 27.126M13.6125 24.9325L23.5504 27.126M13.6125 24.9325L13.6107 24.928M13.6125 24.9325L13.6107 24.928M23.5504 27.126C24.315 27.0861 24.819 26.96 25.2461 26.7898L25.2471 26.7895C26.142 26.4351 26.846 25.7196 27.1859 24.8192L23.5504 27.126ZM13.6107 24.928C13.4405 24.5007 13.3143 23.9967 13.2744 23.2322L13.6107 24.928ZM26.8357 24.6855C26.5341 25.486 25.9063 26.1241 25.1108 26.4385C24.7932 26.5649 24.3341 26.7058 23.5344 26.7475M26.8357 24.6855L17.3231 26.2992L17.3049 26.7979C18.1208 26.8278 18.3747 26.8346 20.4202 26.8181C22.4656 26.8015 22.7164 26.7906 23.5344 26.7475M26.8357 24.6855C26.9568 24.3662 27.0904 23.9078 27.1193 23.1044C27.1193 23.1043 27.1193 23.1042 27.1193 23.1042L26.6205 23.0862L26.8357 24.6855ZM23.5344 26.7475L23.5084 26.2491L23.5346 26.7475C23.5345 26.7475 23.5345 26.7475 23.5344 26.7475ZM27.495 23.1171C27.4675 23.8815 27.3496 24.385 27.186 24.819L27.495 23.1171ZM15.7271 26.5157C15.7284 26.5161 15.7297 26.5166 15.7311 26.5171L15.9003 26.0476L15.7232 26.5142C15.7245 26.5147 15.7258 26.5152 15.7271 26.5157ZM13.9727 24.7895C14.1237 25.1862 14.3595 25.5429 14.6652 25.8381L13.6649 23.2164C13.7066 24.0133 13.8467 24.4721 13.9727 24.7895ZM27.0689 16.8779C27.0271 16.0808 26.887 15.6221 26.7609 15.3047C26.61 14.9079 26.3741 14.5512 26.0684 14.256C25.7689 13.952 25.4039 13.7223 25.0066 13.5785C24.6874 13.4577 24.2294 13.3249 23.4287 13.2961L27.0689 16.8779ZM13.5944 20.1019C13.6109 22.1473 13.6218 22.3982 13.6649 23.2162L17.1991 13.3466C16.4023 13.3883 15.9435 13.5284 15.626 13.6545C15.2297 13.8051 14.8733 14.0407 14.5783 14.3459C14.2704 14.6463 14.0406 15.0116 13.8968 15.4089C13.7759 15.728 13.6432 16.186 13.6145 16.9867C13.5846 17.8025 13.5778 18.0564 13.5944 20.1019ZM20.3135 13.276C18.268 13.2926 18.0173 13.3036 17.1992 13.3466L23.4285 13.2961C22.6129 13.2664 22.3619 13.2594 20.3135 13.276Z" fill="white" stroke="white" stroke-width="0.998242"/>
<path d="M16.9274 20.0692C16.9121 18.1734 18.4379 16.6228 20.3336 16.6075C22.2294 16.5921 23.78 18.1178 23.7953 20.0136C23.8107 21.9094 22.285 23.46 20.3892 23.4754C18.4935 23.4907 16.9428 21.965 16.9274 20.0692ZM17.311 20.0661C17.3246 21.7506 18.7018 23.1054 20.3861 23.0918C22.0705 23.0782 23.4254 21.7011 23.4118 20.0167C23.3981 18.3323 22.0211 16.9774 20.3367 16.9911C18.6524 17.0047 17.2974 18.3817 17.311 20.0661Z" fill="white" stroke="white" stroke-width="0.998242"/>
<path d="M24.8362 15.9157C24.838 16.147 24.652 16.3361 24.4205 16.338C24.1892 16.3399 24.0001 16.1538 23.9982 15.9225C23.9964 15.6911 24.1824 15.5021 24.4138 15.5002C24.6453 15.4983 24.8343 15.6844 24.8362 15.9157Z" fill="white" stroke="white" stroke-width="0.998242"/>
</svg>
