<svg width="20" height="20" viewBox="0 0 20 20" fill="none" xmlns="http://www.w3.org/2000/svg">
<path fill-rule="evenodd" clip-rule="evenodd" d="M13.5845 9.87938L10.0001 15.7917L6.41569 9.87938C4.67716 7.01171 6.69711 3.30908 10.0001 3.30908C13.3031 3.30908 15.323 7.01171 13.5845 9.87938ZM5.04806 10.7439C2.64618 6.78204 5.43685 1.66666 10.0001 1.66666C14.5633 1.66666 17.354 6.78204 14.9521 10.7439L10.5357 18.0287C10.2894 18.4349 9.71076 18.4349 9.46451 18.0287L5.04806 10.7439ZM10.0002 5.77271C9.1119 5.77271 8.39176 6.50805 8.39176 7.41514C8.39176 8.32222 9.1119 9.05756 10.0002 9.05756C10.8886 9.05756 11.6087 8.32222 11.6087 7.41514C11.6087 6.50805 10.8886 5.77271 10.0002 5.77271Z" fill="black"/>
</svg>
